<?xml version="1.0" encoding="UTF-8"?>
<!DOCTYPE svg PUBLIC "-//W3C//DTD SVG 1.1//EN" "http://www.w3.org/Graphics/SVG/1.1/DTD/svg11.dtd">
<svg xmlns="http://www.w3.org/2000/svg" version="1.1" width="192px" height="192px" style="shape-rendering:geometricPrecision; text-rendering:geometricPrecision; image-rendering:optimizeQuality; fill-rule:evenodd; clip-rule:evenodd" xmlns:xlink="http://www.w3.org/1999/xlink">
<g><path style="opacity:1" fill="#f5f7fc" d="M 86.5,77.5 C 84.8008,77.6602 83.1341,77.4935 81.5,77C 80.3502,74.5378 79.0169,72.2045 77.5,70C 73.533,69.9973 69.8663,69.164 66.5,67.5C 65.5342,60.7924 68.2009,58.4591 74.5,60.5C 76.0426,63.086 77.7093,65.586 79.5,68C 80.448,68.4828 81.448,68.6495 82.5,68.5C 82.082,65.5611 80.582,63.2278 78,61.5C 75.957,55.5707 77.957,52.2373 84,51.5C 90.6223,51.7931 92.9556,55.1264 91,61.5C 89.108,63.0542 87.608,64.8876 86.5,67C 87.9529,68.7827 88.9529,70.7827 89.5,73C 89.4779,75.1829 88.4779,76.6829 86.5,77.5 Z"/></g>
<g><path style="opacity:1" fill="#f5f7fc" d="M 124.5,61.5 C 124.411,69.4203 120.411,72.9203 112.5,72C 110.393,70.7365 109.393,68.9032 109.5,66.5C 113.419,67.2536 114.753,65.9203 113.5,62.5C 109.886,65.3128 106.552,64.9795 103.5,61.5C 102.953,63.712 103.953,65.3787 106.5,66.5C 106.97,71.485 109.637,74.1517 114.5,74.5C 115.119,79.9892 115.952,85.3225 117,90.5C 115.301,91.4061 113.467,91.7394 111.5,91.5C 112.055,87.6128 110.721,84.6128 107.5,82.5C 107.167,83 106.833,83.5 106.5,84C 109.396,88.1207 109.063,91.954 105.5,95.5C 105.833,95.8333 106.167,96.1667 106.5,96.5C 107.874,95.2887 109.374,94.2887 111,93.5C 114.366,95.1168 117.2,94.4501 119.5,91.5C 120.622,92.6302 121.956,93.2969 123.5,93.5C 124.11,94.391 124.443,95.391 124.5,96.5C 119.447,96.5327 115.78,98.866 113.5,103.5C 111.223,104.421 108.89,105.087 106.5,105.5C 104.167,105.5 101.833,105.5 99.5,105.5C 97.45,99.371 98.45,93.871 102.5,89C 97.7133,83.1885 97.38,77.1885 101.5,71C 99.6477,66.31 99.1477,61.4767 100,56.5C 105.991,49.574 111.491,50.074 116.5,58C 118.5,58.3333 120.5,58.6667 122.5,59C 123.381,59.7083 124.047,60.5416 124.5,61.5 Z"/></g>
<g><path style="opacity:1" fill="#d9e2f8" d="M 33.5,60.5 C 37.1612,60.3501 38.1612,61.8501 36.5,65C 32.7071,65.4866 31.7071,63.9866 33.5,60.5 Z"/></g>
<g><path style="opacity:1" fill="#ebeffb" d="M 46.5,63.5 C 52.4877,63.664 53.821,66.164 50.5,71C 48.8876,71.7203 47.3876,71.5536 46,70.5C 45.2967,68.0709 45.4634,65.7375 46.5,63.5 Z"/></g>
<g><path style="opacity:1" fill="#f7f8fc" d="M 126.5,66.5 C 128.903,66.393 130.736,67.393 132,69.5C 132.798,72.7107 132.298,75.7107 130.5,78.5C 136.783,80.1125 139.45,84.1125 138.5,90.5C 135.448,90.4878 132.448,90.8211 129.5,91.5C 124.978,92.3797 121.645,90.8797 119.5,87C 119.833,86 120.167,85 120.5,84C 116.249,81.5051 115.582,78.3385 118.5,74.5C 122.879,73.4544 125.546,70.7877 126.5,66.5 Z"/></g>
<g><path style="opacity:1" fill="#f4f6fc" d="M 66.5,68.5 C 69.2119,72.0882 71.5453,75.9215 73.5,80C 74.7287,80.7811 76.062,81.2811 77.5,81.5C 80.4486,80.6978 83.4486,80.3645 86.5,80.5C 89.8715,81.3699 91.5381,83.5365 91.5,87C 88.838,91.838 86.838,97.0047 85.5,102.5C 86.1404,107.25 87.4737,111.75 89.5,116C 88.7589,118.806 87.7589,121.473 86.5,124C 87.1623,126.676 88.6623,128.843 91,130.5C 92.3781,138.122 89.2115,141.622 81.5,141C 79.0896,139.438 77.7562,137.271 77.5,134.5C 78.7057,130.626 80.3724,126.96 82.5,123.5C 81.0369,121.369 80.0369,119.035 79.5,116.5C 85.0624,103.995 83.0624,92.8288 73.5,83C 68.8107,82.7087 64.144,82.7087 59.5,83C 53.3469,78.7481 53.0135,74.0814 58.5,69C 61.146,68.5026 63.8127,68.3359 66.5,68.5 Z"/></g>
<g><path style="opacity:1" fill="#3c6bde" d="M 66.5,67.5 C 69.8663,69.164 73.533,69.9973 77.5,70C 79.0169,72.2045 80.3502,74.5378 81.5,77C 83.1341,77.4935 84.8008,77.6602 86.5,77.5C 85.0484,78.3019 83.3817,78.8019 81.5,79C 83.3817,79.1981 85.0484,79.6981 86.5,80.5C 83.4486,80.3645 80.4486,80.6978 77.5,81.5C 76.062,81.2811 74.7287,80.7811 73.5,80C 71.5453,75.9215 69.2119,72.0882 66.5,68.5C 66.5,68.1667 66.5,67.8333 66.5,67.5 Z"/></g>
<g><path style="opacity:1" fill="#f4f6fc" d="M 43.5,76.5 C 49.8302,75.6662 52.6635,78.3329 52,84.5C 48.3333,88.5 44.6667,88.5 41,84.5C 40.0228,81.1827 40.8562,78.516 43.5,76.5 Z"/></g>
<g><path style="opacity:1" fill="#f4f7fc" d="M 55.5,87.5 C 57.1992,87.3398 58.8659,87.5065 60.5,88C 61.6545,90.2146 63.1545,92.0479 65,93.5C 71.8147,90.9382 77.148,92.6049 81,98.5C 81.3758,104.415 79.0425,109.082 74,112.5C 73.3333,114.167 73.3333,115.833 74,117.5C 77.4833,121.552 77.3167,125.385 73.5,129C 67.1987,130.281 64.3654,127.781 65,121.5C 65.6152,119.884 66.6152,118.551 68,117.5C 68.6667,115.5 68.6667,113.5 68,111.5C 63.8153,107.795 61.8153,103.128 62,97.5C 59.3333,96.8333 56.6667,96.1667 54,95.5C 51.8993,92.3116 52.3993,89.645 55.5,87.5 Z"/></g>
<g><path style="opacity:1" fill="#3e6ddf" d="M 124.5,61.5 C 125.167,63.1667 125.833,64.8333 126.5,66.5C 125.546,70.7877 122.879,73.4544 118.5,74.5C 115.582,78.3385 116.249,81.5051 120.5,84C 120.167,85 119.833,86 119.5,87C 121.645,90.8797 124.978,92.3797 129.5,91.5C 131.199,91.3398 132.866,91.5065 134.5,92C 132.942,92.21 131.609,92.71 130.5,93.5C 128.973,93.427 127.973,94.0937 127.5,95.5C 126.833,97.1667 126.167,98.8333 125.5,100.5C 116.268,99.8732 113.768,103.54 118,111.5C 121.933,115.264 122.433,119.431 119.5,124C 117.913,124.862 116.246,125.529 114.5,126C 113.415,128.172 112.081,130.172 110.5,132C 109.365,132.749 108.365,132.583 107.5,131.5C 109.488,129.691 110.822,127.524 111.5,125C 111.333,124.167 111.167,123.333 111,122.5C 109.513,121.845 108.347,120.845 107.5,119.5C 108.365,118.417 109.365,118.251 110.5,119C 113.929,125.016 116.929,124.849 119.5,118.5C 118.952,116.444 117.786,114.777 116,113.5C 115.749,111.567 115.249,109.734 114.5,108C 111.314,108.114 108.314,107.947 105.5,107.5C 108.925,107.633 109.258,106.967 106.5,105.5C 108.89,105.087 111.223,104.421 113.5,103.5C 115.78,98.866 119.447,96.5327 124.5,96.5C 125.885,95.0527 125.552,94.0527 123.5,93.5C 121.956,93.2969 120.622,92.6302 119.5,91.5C 117.2,94.4501 114.366,95.1168 111,93.5C 109.374,94.2887 107.874,95.2887 106.5,96.5C 106.167,96.1667 105.833,95.8333 105.5,95.5C 109.063,91.954 109.396,88.1207 106.5,84C 106.833,83.5 107.167,83 107.5,82.5C 110.721,84.6128 112.055,87.6128 111.5,91.5C 113.467,91.7394 115.301,91.4061 117,90.5C 115.952,85.3225 115.119,79.9892 114.5,74.5C 109.637,74.1517 106.97,71.485 106.5,66.5C 103.953,65.3787 102.953,63.712 103.5,61.5C 106.552,64.9795 109.886,65.3128 113.5,62.5C 114.753,65.9203 113.419,67.2536 109.5,66.5C 109.393,68.9032 110.393,70.7365 112.5,72C 120.411,72.9203 124.411,69.4203 124.5,61.5 Z"/></g>
<g><path style="opacity:1" fill="#6186e4" d="M 129.5,91.5 C 132.448,90.8211 135.448,90.4878 138.5,90.5C 137.9,91.8999 136.9,92.8999 135.5,93.5C 133.833,93.5 132.167,93.5 130.5,93.5C 131.609,92.71 132.942,92.21 134.5,92C 132.866,91.5065 131.199,91.3398 129.5,91.5 Z"/></g>
<g><path style="opacity:1" fill="#95b1ed" d="M 123.5,93.5 C 125.552,94.0527 125.885,95.0527 124.5,96.5C 124.443,95.391 124.11,94.391 123.5,93.5 Z"/></g>
<g><path style="opacity:1" fill="#f6f8fc" d="M 130.5,93.5 C 132.167,93.5 133.833,93.5 135.5,93.5C 141.551,100.029 142.051,107.029 137,114.5C 135.758,115.872 134.258,116.872 132.5,117.5C 132.896,125.431 129.23,129.431 121.5,129.5C 121.916,136.952 118.583,139.618 111.5,137.5C 103.341,143.063 98.3415,141.063 96.5,131.5C 96.7683,128.297 98.1016,125.63 100.5,123.5C 96.9846,118.879 96.6513,114.046 99.5,109C 101.345,107.872 103.345,107.372 105.5,107.5C 108.314,107.947 111.314,108.114 114.5,108C 115.249,109.734 115.749,111.567 116,113.5C 117.786,114.777 118.952,116.444 119.5,118.5C 116.929,124.849 113.929,125.016 110.5,119C 109.365,118.251 108.365,118.417 107.5,119.5C 108.347,120.845 109.513,121.845 111,122.5C 111.167,123.333 111.333,124.167 111.5,125C 110.822,127.524 109.488,129.691 107.5,131.5C 108.365,132.583 109.365,132.749 110.5,132C 112.081,130.172 113.415,128.172 114.5,126C 116.246,125.529 117.913,124.862 119.5,124C 122.433,119.431 121.933,115.264 118,111.5C 113.768,103.54 116.268,99.8732 125.5,100.5C 125.56,101.043 125.893,101.376 126.5,101.5C 127.466,99.604 127.799,97.604 127.5,95.5C 127.973,94.0937 128.973,93.427 130.5,93.5 Z"/></g>
<g><path style="opacity:1" fill="#92afed" d="M 127.5,95.5 C 127.799,97.604 127.466,99.604 126.5,101.5C 125.893,101.376 125.56,101.043 125.5,100.5C 126.167,98.8333 126.833,97.1667 127.5,95.5 Z"/></g>
<g><path style="opacity:1" fill="#f3f5fc" d="M 56.5,109.5 C 63.0001,108.499 65.5001,111.165 64,117.5C 61,121.5 58,121.5 55,117.5C 54.1093,114.502 54.6093,111.836 56.5,109.5 Z"/></g>
</svg>
